<?xml version="1.0" encoding="UTF-8" standalone="no"?>
<!DOCTYPE svg PUBLIC "-//W3C//DTD SVG 1.1//EN" "http://www.w3.org/Graphics/SVG/1.1/DTD/svg11.dtd">
<svg width="100%" height="100%" viewBox="0 0 1024 1024" version="1.1" xmlns="http://www.w3.org/2000/svg" xmlns:xlink="http://www.w3.org/1999/xlink" xml:space="preserve" xmlns:serif="http://www.serif.com/" style="fill-rule:evenodd;clip-rule:evenodd;stroke-linecap:round;stroke-linejoin:round;stroke-miterlimit:1.5;">
    <g transform="matrix(1,0,0,1,-194.117,-7.94004)">
        <g transform="matrix(0.990974,0,0,0.964201,5.08505,25.5795)">
            <path d="M642.936,418.672C642.936,409.807 635.944,402.621 627.319,402.621C580.781,402.621 443.387,402.621 396.849,402.621C388.224,402.621 381.232,409.807 381.232,418.672C381.232,461.162 381.232,577.956 381.232,645.835C381.232,659.281 386.429,672.177 395.681,681.685C404.932,691.193 417.479,696.535 430.562,696.535C477.241,696.535 546.926,696.535 593.605,696.535C606.689,696.535 619.236,691.193 628.487,681.685C637.738,672.177 642.936,659.281 642.936,645.835C642.936,577.956 642.936,461.162 642.936,418.672Z" style="fill:none;stroke:white;stroke-width:31.07px;"/>
        </g>
        <g transform="matrix(1,0,0,1,2.00181,6.8714)">
            <path d="M348.263,406.916L671.734,406.916" style="fill:none;stroke:white;stroke-width:31.25px;"/>
        </g>
        <g transform="matrix(1,0,0,0.910555,-4.29462,54.065)">
            <path d="M553.546,484.412L553.546,604.447" style="fill:none;stroke:white;stroke-width:31.76px;"/>
        </g>
        <g transform="matrix(1,0,0,0.910555,-77.3032,54.065)">
            <path d="M553.546,484.412L553.546,604.447" style="fill:none;stroke:white;stroke-width:31.76px;"/>
        </g>
        <g transform="matrix(1.25346,0,0,1.03855,-129.488,-1.82524)">
            <path d="M577.166,354.056C577.166,341.73 568.887,331.738 558.674,331.738L465.746,331.738C455.533,331.738 447.254,341.73 447.254,354.056L447.254,400.186L577.166,400.186L577.166,354.056Z" style="fill:none;stroke:white;stroke-width:26.39px;"/>
        </g>
    </g>
    <g transform="matrix(17.5907,0,0,17.5907,-9311.92,-8810.87)">
        <text x="556.477px" y="532.687px" style="font-family:'FranklinGothic-DemiCond', 'Franklin Gothic Demi Cond', sans-serif;font-stretch:condensed;font-size:12px;fill:white;">rash</text>
    </g>
    <g transform="matrix(12.1382,0,0,12.1382,-6269.78,-5799.32)">
        <text x="556.477px" y="532.687px" style="font-family:'FranklinGothic-DemiCond', 'Franklin Gothic Demi Cond', sans-serif;font-stretch:condensed;font-size:12px;fill:white;">s<tspan x="561.501px 567.141px 571.216px 575.015px 580.655px " y="532.687px 532.687px 532.687px 532.687px 532.687px ">orter</tspan></text>
    </g>
    <g transform="matrix(0.987432,0,0,1.00248,4.26945,-0.868554)">
        <path d="M432.636,421.795L433.014,571.474L464.84,571.474L465.029,422.074C465.029,422.074 463.404,421.834 480.374,421.422C490.899,421.167 498.186,417.552 498.216,405.71C498.24,395.535 490.704,389.923 480.374,389.923C447.282,389.923 370.713,389.923 370.713,389.923L370.713,421.422L432.636,421.795Z" style="fill:rgb(39,68,114);"/>
        <path d="M470.026,426.672C472.286,426.58 475.648,426.467 480.498,426.349C488.476,426.156 494.836,424.046 498.772,419.468C501.484,416.314 503.204,411.906 503.219,405.722C503.235,398.982 500.635,393.801 496.432,390.257C492.443,386.893 486.87,384.995 480.374,384.995C447.282,384.995 370.713,384.995 370.713,384.995C367.95,384.995 365.71,387.201 365.71,389.923L365.71,421.422C365.71,424.133 367.931,426.334 370.683,426.351L427.645,426.693L428.01,571.486C428.017,574.203 430.255,576.402 433.014,576.402L464.84,576.402C467.601,576.402 469.84,574.199 469.843,571.48L470.026,426.672ZM469.993,421.729C472.275,421.641 475.583,421.539 480.374,421.422C490.899,421.167 498.186,417.552 498.216,405.71C498.24,395.535 490.704,389.923 480.374,389.923C447.282,389.923 370.713,389.923 370.713,389.923L370.713,421.422L432.636,421.795L433.014,571.474L464.84,571.474L465.029,422.074C465.029,422.074 464.799,422.04 465.415,421.976L465.029,427.002L469.998,422.114C470.002,421.985 470.001,421.857 469.993,421.729Z" style="fill:white;"/>
    </g>
</svg>
